<svg xmlns="http://www.w3.org/2000/svg" viewBox="0 0 100 67.1"><path d="M49.74,58.35a4.84,4.84,0,1,1,4.83,4.84,4.82,4.82,0,0,1-4.83-4.84m19.68,0a4.84,4.84,0,1,1,4.84,4.84,4.82,4.82,0,0,1-4.84-4.84m-45.63,0a4.84,4.84,0,1,1,4.84,4.84,4.82,4.82,0,0,1-4.84-4.84m-19.68,0A4.84,4.84,0,1,1,9,63.19a4.82,4.82,0,0,1-4.84-4.84M43.9,49.8H39.7V66.73h4.2ZM13.75,66.73H18V49.8H13.75v1.36a8.75,8.75,0,1,0,0,14.38Zm65.31,0h4.21V49.8H79.06v1.36a8.75,8.75,0,1,0,0,14.38Zm5.77-5.5c.13,3.42,3,5.83,7.91,5.83,4,0,7.26-1.72,7.26-5.53,0-2.65-1.49-4.21-4.94-4.87l-2.68-.53c-1.72-.33-2.92-.66-2.92-1.69s1.16-1.62,2.62-1.62c2.12,0,3,1.06,3,2.32h4.24c-.23-3.32-2.88-5.54-7.16-5.54s-7,2.42-7,5.57c0,3.84,3.11,4.47,5.8,5l2.22.4c1.59.3,2.28.76,2.28,1.69s-.79,1.65-2.68,1.65c-2.75,0-3.64-1.42-3.68-2.65ZM33.43,44v7.12a8.75,8.75,0,1,0,0,14.38v1.19h4.21V44Zm26,0v7.12a8.75,8.75,0,1,0,0,14.38v1.19h4.21V44ZM10.93,39l2.85,5H33.43L25.65,30.58Zm33,9.21V44H59.38L42.88,15.47,28.13,23.92,39.7,44v4.2ZM65.64,44H85.32L59.87,0,45.16,8.48Z" transform="translate(0 0)" fill="#fff"/></svg>