<svg xmlns="http://www.w3.org/2000/svg" viewBox="0 0 300 184.71"><path d="M314.88,162.69h.94c.48,0,1,.09,1,.7s-.57.75-1.2.75h-.74Zm-.71,4h.71v-2h.75l1.24,2h.77l-1.31-2a1.17,1.17,0,0,0,1.2-1.24c0-.88-.51-1.31-1.6-1.31h-1.76v4.57Zm-1.7-2.3a3.22,3.22,0,1,1,3.22,3.35A3.21,3.21,0,0,1,312.47,164.38Zm-.71,0a3.93,3.93,0,1,0,3.93-3.89A3.91,3.91,0,0,0,311.76,164.38ZM268,158.57v6.53H251.67v7.37H262.9a6.91,6.91,0,0,1,6.91,6.91v6.06a6.92,6.92,0,0,1-6.91,6.92h-19v-6.53h18.77V179H251.44a6.91,6.91,0,0,1-6.91-6.91v-6.61a6.91,6.91,0,0,1,6.91-6.91Zm37.47,33.79H288.91a6.91,6.91,0,0,1-6.91-6.91v-20a6.91,6.91,0,0,1,6.91-6.91h16.58v6.53H289.14v7.52h16.35v6.53H289.14v6.68h16.35Zm-112,0H177a6.92,6.92,0,0,1-6.91-6.91v-20a6.92,6.92,0,0,1,6.91-6.91h16.58v6.53H177.18v7.52h16.35v6.53H177.18v6.68h16.35ZM98.16,158.57H113.9a6.91,6.91,0,0,1,6.91,6.91v26.88h-7.14V165.1h-11.9v27.26H94.63V158.57Zm115.33,14.05h12.67V165.1H213.49Zm19.81-6.21v5.83a6.9,6.9,0,0,1-6.07,6.86l6.69,13.26h-8L220,179.15H213.5v13.21h-7.14V158.57h20a6.91,6.91,0,0,1,6.91,6.91v.93Zm-96.13-7.84,8,28.11,8.45-28.11h8.14l-10.9,33.79H139.63l-10.45-33.79ZM19.61,165.48a6.91,6.91,0,0,1,6.91-6.91H44.26v6.53H26.75v20.73H44.26v6.53H26.52a6.91,6.91,0,0,1-6.91-6.91v-20Zm35.55,0a6.92,6.92,0,0,1,6.91-6.91H76.81a6.92,6.92,0,0,1,6.92,6.91v20a6.92,6.92,0,0,1-6.92,6.91H62.07a6.92,6.92,0,0,1-6.91-6.91Zm7.14-.38H76.59v20.73H62.3ZM164.85,32.6,174,60.86h29.72l-24,17.47,9.18,28.27-24-17.47-24,17.47L150,78.33,126,60.86h29.71Zm55.4,39.93a55.41,55.41,0,1,1-55.4-55.41A55.4,55.4,0,0,1,220.25,72.53ZM164.85,7.64a64.89,64.89,0,1,0,64.88,64.89A64.88,64.88,0,0,0,164.85,7.64Z" transform="translate(-19.61 -7.64)" fill="#fff" fill-rule="evenodd"/></svg>