<svg xmlns="http://www.w3.org/2000/svg" viewBox="0 0 196 69.85"><path d="M23.73,70.59Q15,70.25,9.38,65.79a27.14,27.14,0,0,1-3-3A18.83,18.83,0,0,1,3.16,57c-2.11-6.33-1-14.64,3.11-23.76,3.55-7.8,9-15.55,18.55-26.27C26.23,5.38,30.41.77,30.44.77s-.22.39-.51.87a56.12,56.12,0,0,0-5.75,13.28c-1.86,6.8-1.64,12.63.65,17.16a16.86,16.86,0,0,0,7.33,7.31C37.49,42,45.29,42.21,54.82,40c.66-.16,33.16-8.78,72.24-19.18L198.11,2S107.33,40.81,60.2,61c-7.47,3.19-9.46,4-13,5.23C38.26,69.35,30.23,70.85,23.73,70.59Z" transform="translate(-2.11 -0.77)" fill="#fff"/></svg>