<svg xmlns="http://www.w3.org/2000/svg" viewBox="0 0 297.12 148.04"><path d="M161.58,6.82c-1,.15-1.91,3.73-3.79,5.59-1.37,1.35-3.09,1.27-4,2.93-.35.62-.23,1.68-.63,2.7-.76,2-3.46,2.22-3.46,4.44,0,2.4,2.25,2.85,4.21,4.56,1.53,1.36,1.67,2.31,3.53,3,1.57.54,3.93-1.22,6-.59,1.74.52,3.4.9,3.8,2.68s0,4.2-2.13,3.9a23.18,23.18,0,0,0-7.58-.71c-4.56.52-9.78,2-10.28,7.1-.28,2.84,3.23,6.2,6.63,5.51,2.35-.46,1.24-3.23,2.52-4.57,1.68-1.73,11.18,6,20,6a11.56,11.56,0,0,0,9.23-3.81c.26-.22.57-.7,1-.72a3.21,3.21,0,0,1,1.24.55c7.12,5.72,12.5,17.19,38.65,17.33a17.63,17.63,0,0,1,11.29,4.9c3,2.82,4.84,7.21,6.57,11.66,2.62,6.68,7.31,13.18,14.42,20.42.39.38,6.24,4.94,6.71,5.28a2.74,2.74,0,0,1,.36,1.65c-.18,4.33-.81,16.94,8.6,17.51,2.29.12,1.69-1.5,1.69-2.61,0-2.19-.41-4.38.75-6.62,1.59-3.1-3.36-4.52-3.21-11.21.1-5-4.09-4.14-6.21-7.93-1.23-2.21-2.31-3.37-2.24-6.07.48-15.14-3.22-25.1-5.07-27.54-1.43-1.85-2.63-2.58-1.31-3.44,7.85-5.18,9.63-10,9.63-10,4.17-9.81,7.92-18.77,13.1-22.71A38.46,38.46,0,0,1,287,22.39c4.83-2.28,7.37-3.66,8.77-5,2.22-2.17,4-6.68,1.85-9.41-2.65-3.37-7.22-.7-9.24.5C273.93,17,271.81,32.12,266.81,40.8c-4,6.93-10.46,12-16.26,12.43a28.91,28.91,0,0,1-13.69-2.6,68.71,68.71,0,0,1-19-12.53c-3-2.35-26.7-25.57-45.86-26.52,0,0-2.38-4.76-3-4.84-1.4-.18-2.84,2.85-3.86,3.2s-2.6-3.28-3.57-3.12M77.21,145.4a3.41,3.41,0,0,1-3.33-3.35V82.27H54.18v65.9A5.86,5.86,0,0,0,60,154H94.44a5.84,5.84,0,0,0,5.82-5.86V82.27H80.58l0,59.78a3.42,3.42,0,0,1-3.35,3.35m66-63.13H113.36A6.42,6.42,0,0,0,107,88.71V154h19.72V94.11a3.35,3.35,0,0,1,6.69,0v60H153v-60a3.34,3.34,0,0,1,6.68,0V154H179.4V88.71a6.42,6.42,0,0,0-6.4-6.44Zm-115.36,12a3.37,3.37,0,0,0-3.33-3.42H21.13v36.29h3.35a3.32,3.32,0,0,0,3.33-3.36ZM41,136H21.13v18H1.44V82.27H41.16a6.36,6.36,0,0,1,6.33,6.47v40.79A6.45,6.45,0,0,1,41,136m206,2a7.39,7.39,0,1,0,.12,0Zm8.87,7.55A8.78,8.78,0,1,1,247,136.7a8.79,8.79,0,0,1,8.89,8.83" transform="translate(-1.44 -6.32)" fill="#fff"/><path d="M246.19,145c1.37,0,2.09-.48,2.09-1.45s-.7-1.31-2-1.31h-.39V145Zm5,5.68h-2.35l-3-4v4h-1.92V140.46h2c2.74,0,4.2,1,4.2,3a3,3,0,0,1-2.06,2.85l-.14,0Zm-38.77-23.51v-33a3.3,3.3,0,0,0-3.35-3.23,3.33,3.33,0,0,0-3.34,3.28v33Zm0,26.9V136h-6.69v18H186.09V88.71a6.41,6.41,0,0,1,6.4-6.44h33.25a6.42,6.42,0,0,1,6.41,6.44V154Z" transform="translate(-1.44 -6.32)" fill="#fff"/></svg>