<svg xmlns="http://www.w3.org/2000/svg" viewBox="0 0 283.46 142.27"><path d="M286.8,41.65c9.35-3.1,10.55-8.17,10.47-17.38h-12c.29,5.78-.62,12.33-8.16,12.33h-5.71V13.9H259.25V61.38h12.16V46.51h4.43c5.79-.23,9.71,4,9.71,7.41v7.46h12.09V56.3C297.64,47.13,293.34,43.72,286.8,41.65Z" transform="translate(-14.17 -13.9)" fill="#fff"/><path d="M187.76,24.45H180v10h5.31c4.58,0,7.88,4.07,7.88,8.46a8.39,8.39,0,0,1-7.68,8.6h-9.84V14h-12V61.41H185.4c9.17,0,20-6.83,20-18.14S196.8,24.45,187.76,24.45Z" transform="translate(-14.17 -13.9)" fill="#fff"/><path d="M78.31,42.94a8.3,8.3,0,0,1,8.42-8.47h9.65l-7.8,12.89h11.53l7.81-12.09V24.44l-23.07,0a18.5,18.5,0,0,0,0,37H108V51.4H86.73A8.54,8.54,0,0,1,78.31,42.94Z" transform="translate(-14.17 -13.9)" fill="#fff"/><path d="M125.66,42.94a8.3,8.3,0,0,1,8.42-8.47h9.65l-7.79,12.89h11.52l7.82-12.09V24.44l-23.07,0a18.5,18.5,0,0,0,0,37h23.13V51.4H134.08A8.54,8.54,0,0,1,125.66,42.94Z" transform="translate(-14.17 -13.9)" fill="#fff"/><path d="M62.3,30.45C62.3,20,52.35,14,43.64,14H14.17V61.56H25.85V24.25l15.26,0c5.13,0,8.78,3.12,8.78,8.54,0,4.55-3,8.45-8.64,8.45h-11v9.74s7.28,0,7.54,0c6.18.24,10.62,2.85,10.68,9.73l0,10.94,12.28.06V57.41c0-6.27-5-10-9.79-11.22C58.74,43.37,62.3,37.42,62.3,30.45Z" transform="translate(-14.17 -13.9)" fill="#fff"/><path d="M232,23.83c-14,0-22,8.71-22,19.44s8.9,19.41,22,19.41c13.64,0,22-8.7,22-19.41S246.13,23.83,232,23.83Zm0,29.4a10,10,0,1,1,9.94-10A10,10,0,0,1,232,53.23Z" transform="translate(-14.17 -13.9)" fill="#fff"/><path d="M106.83,109.12c-11.26,4.52-48.45,16.45-70,44.39H81.67C85,149,90.23,143.63,98,137.62c12.44-9.24,21.7-14.1,36-20Z" transform="translate(-14.17 -13.9)" fill="#fff" fill-rule="evenodd"/><path d="M98.87,153.51H139.5c9.48-14.45,20.69-21.25,25.33-24.78l-21.32-7.94C135.14,124.74,115,134.07,98.87,153.51Z" transform="translate(-14.17 -13.9)" fill="#fff" fill-rule="evenodd"/><path d="M165.55,94.42l30.14,17.74c28.77-12.71,67-23.78,101.81-32.13C297.5,80,209.57,85.52,165.55,94.42Z" transform="translate(-14.17 -13.9)" fill="#fff" fill-rule="evenodd"/><path d="M25.43,81.65a749.82,749.82,0,0,1,103.41,25.28c28.17,8.78,71.09,26.72,98.25,38.34,15.08,6.46,25.4,10.9,25.4,10.9-78.24-47.91-127.13-74.52-127.13-74.52Z" transform="translate(-14.17 -13.9)" fill="#fff" fill-rule="evenodd"/></svg>