<svg xmlns="http://www.w3.org/2000/svg" viewBox="0 0 254.65 98.72"><path d="M260.15,20.49c-1.77,4.15,1.67,10.74-3.29,12l-154-.52-16.35.34-2.31,3.54L64.89,109l-2.67,1.21-26-.46-2.44-5.07c-7.25-29.82-15.4-59.14-22.37-88.93,6.67-.87,14.44-1.38,21.21.05,7,21.78,10.26,45,16.41,67.52l.8.65,1.91-2.15L68.31,16.79l1.85-1.56,174.94.28c5,1.57,15.48-3.57,15,5" transform="translate(-11.39 -14.93)" fill="#fff"/><path d="M260.39,48.58c.44,4.89-4.22,9.38-7.62,12.24-6.34-2.81-14.17-8.62-22-4.42-2.44,1.82-4.15,5.11-2.37,7.81,10.79,8.08,30.05,3.68,34.11,20.06,2,7,.4,16.06-5.18,21-9,8.4-22.05,10.17-34.62,6.55-5.52-2.46-11.69-4.11-16.47-8.53a39.61,39.61,0,0,1,8.54-13c7,1.73,13.12,7.42,21.79,6.4a9.42,9.42,0,0,0,7.88-5.09c1-12.2-14.56-7.48-21.73-11a19.87,19.87,0,0,1-14.49-14.94c-1.41-7.29.61-14.28,6.18-19,13-8.92,33.54-7.51,45.94,1.84" transform="translate(-11.39 -14.93)" fill="#fff"/><path d="M200.85,45c.52,20.95.43,42.71-.16,63.54-6.75,1.74-14.36.24-21.51.22-5.77-9.62-9.31-18.82-15.93-28.52-.84-.36-1.22.76-1.81,1l-.54,26.9c-4.51,2.47-10.88.23-16.11,1.22l-1.15-3.55c.21-19.73-.57-41.27,1-60.6,5.84-1.23,12.43-1.26,19-1l1.9,1.3,14.69,26.41,2-.39c-.5-7.78,1.19-17.64.76-26.29,5-2.15,12.41-1,17.8-.22" transform="translate(-11.39 -14.93)" fill="#fff"/><path d="M111.19,79.36c-.44-5.2-2.58-10.22-4.76-14.72-2.94,4-2.84,9.79-4.11,14.55,2.41,2.21,6.21,1.12,8.87.17M126.77,60.9l11.78,47.68c-5,1.85-11.51.46-17.23.55-2.83-4-1-11.54-7.56-12.37-6.05.37-13.89-2-18,2.79l-2.83,9.78c-5.49.7-12.1.74-17.13-.57,5.52-21.59,11.88-42.81,18.51-64,8.17-1.61,18.72-1,27.19,0Z" transform="translate(-11.39 -14.93)" fill="#fff"/><path d="M263.07,37.57a1.33,1.33,0,0,0-.56-.1h-.23v1.07h.37a.91.91,0,0,0,.53-.12.56.56,0,0,0,.19-.45.39.39,0,0,0-.3-.4m-1.72,2.89V36.87h1.74a1.58,1.58,0,0,1,.72.19.89.89,0,0,1,.48.85.75.75,0,0,1-.25.65,1.07,1.07,0,0,1-.62.24,1.22,1.22,0,0,1,.51.21,1,1,0,0,1,.33.82v.32s0,.07,0,.11,0,.07,0,.1l0,.12-.89,0a2.41,2.41,0,0,1-.06-.5,1.05,1.05,0,0,0-.06-.43.45.45,0,0,0-.26-.28,1.92,1.92,0,0,0-.34,0h-.41v1.28Zm-.46-3.67a2.55,2.55,0,0,0-.78,1.88,2.64,2.64,0,0,0,.79,1.91,2.54,2.54,0,0,0,1.88.77,2.6,2.6,0,0,0,1.91-.78,2.67,2.67,0,0,0,.78-1.9,2.67,2.67,0,0,0-4.58-1.88M265.07,41a3.15,3.15,0,0,1-2.29.91,3.24,3.24,0,0,1-2.32-.94,3.29,3.29,0,0,1-.93-2.31,3.1,3.1,0,0,1,1-2.37,3.25,3.25,0,0,1,2.24-.9,3.09,3.09,0,0,1,2.29,1,3.28,3.28,0,0,1,0,4.65" transform="translate(-11.39 -14.93)" fill="#fff"/></svg>