<svg viewBox="0 0 14 14" xmlns="http://www.w3.org/2000/svg"><path d="m1.9172694 10.965625c-.25408-.038-.4418-.1401-.62859-.3418-.13883-.15-.21631-.3002-.25915-.5024-.0393-.1853999-.0394-.2409999-.001-.4203999.096-.4532.45055-.7873.90346-.8515.1936-.027.40808 0 .58192.085.0749.035.13988.064.14444.064.005 0 .008-.024.008-.053v-.053h.23538.23538v1.0165 1.0163999h-.23538-.23538v-.053c0-.029-.004-.053-.008-.053-.005 0-.0696.029-.14444.063-.0749.035-.19873.073-.27523.085-.15404.024-.15458.024-.32098-.0003zm.40657-.5218c.19136-.097.34237-.3271.34237-.5222999 0-.3187-.27665-.6025-.58691-.6021-.32279.0005-.59066.2662-.58953.5849.00084.2349999.11604.4216999.32556.5276999.12111.061.14849.067.28383.059.0835-.01.18291-.026.22468-.047zm1.91592.5215c-.16478-.025-.40051-.1385-.53418-.2573-.38992-.3466-.47079-.9414999-.18755-1.3796999.22203-.3436.63957-.5352 1.04182-.4783.13363.019.34421.089.38423.1285.0112.011.028.02.0374.02.009 0 .0171-.1829.0171-.4065v-.4066h.24608.24609v1.3695 1.3694999h-.24609-.24608v-.053c0-.062-.006-.064-.0703-.023-.15008.097-.46832.1509-.68858.1176zm.4337-.5346c.21474-.1073.3268-.2912.32355-.5309999-.004-.3121-.22853-.5503-.54111-.5745-.33931-.026-.63417.251-.63417.5963 0 .2317999.19392.4837999.42672.5543999.12958.039.29005.022.42501-.045zm2.69047.5339c-.19731-.029-.42034-.1458-.57752-.3029-.21367-.2137-.31128-.4501-.31128-.7538999 0-.3039.0976-.5403.31128-.754.31515-.3151.79001-.403 1.18367-.2191.0749.035.13987.064.14443.064.005 0 .008-.1832.008-.4072v-.4073l.24073.01.24074.01.005 1.3641.006 1.3641999h-.24624-.24624v-.053c0-.029-.004-.053-.008-.053-.005 0-.0696.029-.14443.063-.0749.035-.19874.073-.27524.085-.15475.025-.15247.025-.33091 0zm.40626-.5188c.45808-.2134.47012-.8278999.021-1.0690999-.1217-.065-.39148-.065-.51453 0-.21346.1134-.34612.3517-.32506.584.0131.1446999.0567.2385999.16254.3499999.17582.1852.43428.2384.6561.1351zm1.92541.5217c-.52512-.083-.90893-.5307-.90893-1.0596999 0-.5905.46628-1.0591 1.05874-1.064.1821796 0 .3774696.043.4987096.1134.0893.052.0897.052.0897-.012v-.053h.24608.24608v1.0165 1.0163999h-.24608-.24608v-.053c0-.061-.0148-.065-.0746-.02-.11376.086-.4665196.1481-.6636496.1168zm.3538696-.5037c.13273-.047.26506-.1645.32885-.2925.11124-.2232999.0555-.5441999-.12019-.6919999-.3129896-.2634-.7492496-.1843-.9311696.1687-.0763.1481-.0793.3616999-.007.5115999.0592.1229.20689.2582.32915.3016.11772.042.28656.043.4004296 0zm1.71233.4499c-.36473-.083-.58616-.3015-.60669-.5994l-.004-.064.27283-.01c.26396-.01.27283 0 .27283.039 0 .084.065.1732.15656.2147.0637.029.13904.041.26104.041.20165.0006.30438-.042.34598-.1442.0233-.057.0214-.072-.015-.1183-.0547-.07-.14372-.1033-.49183-.1864-.47164-.1125999-.64521-.2209999-.7069-.4412999-.0603-.2154.0228-.51.18165-.6445.21081-.1783.619-.24.99601-.1504.30028.071.49838.2744.51718.5301l.007.096-.25932.01-.25933.01-.012-.06c-.007-.033-.0319-.085-.0562-.1161-.079-.1005-.35952-.1324-.52011-.059-.0657.03-.11213.1259-.0918.1899.0215.068.11697.1065.50503.2057.19515.05.39469.1111.44343.1359.23063.1177.31372.2615999.30063.5206999-.0143.283-.16464.4721-.45692.5746-.16996.06-.58049.076-.77979.031zm-6.0304696-1.0326999.006-1.0432.26213-.01.26213-.01v1.0492 1.0491999h-.26768-.26769l.006-1.0431999zm-.005-1.439v-.2354h.26748.26748v.2354.2353h-.26748-.26748zm6.8034496.1295c-.10343-.031-.14849-.067-.19127-.1508-.0549-.1076-.0543-.1986.002-.2987.0836-.1487.26694-.2014.42155-.1211.21753.1129.2037.446-.0228.5488-.0977.044-.12539.047-.20944.022zm.21693-.081c.21843-.129.11715-.477-.13883-.477-.17447 0-.30158.1694-.24827.331.0533.1615.24105.2323.3871.146zm-.27988-.2232v-.1742l.1075.013c.0591.01.1169.019.12839.026.0381.024.0218.1143-.0267.1483-.0262.018-.0379.033-.026.033.0118 0 .0386.029.0595.064.0327.055.0334.064.005.064-.018 0-.0471-.028-.0646-.062-.0268-.052-.0722-.088-.11009-.088-.005 0-.009.034-.009.075 0 .052-.01.075-.0321.075-.0259 0-.0321-.034-.0321-.1742zm.20529-.043c.0182-.029-.0477-.082-.10239-.082-.027 0-.0387.016-.0387.053 0 .045.0101.053.0629.053.0346 0 .0698-.011.0782-.025zm-10.2922696-.2552c-.0724-.1234-.11791-.2227-.10699-.2332.0283-.027 1.69944-1.0276 1.7166-1.0276.008 0 .20182.3105.43048.6901.22866.3795.42948.7118.44626.7382l.0305.048-1.19542-.0004-1.19542-.0004-.12602-.2149zm2.67236-.9114c-.37203-.6199-.67828-1.1362-.68055-1.1474-.006-.029 1.72093-1.0702 1.73969-1.049.0124.014 1.95316 3.249 1.9842 3.3074.005.01-.52595.016-1.17919.016h-1.18773l-.67642-1.1271zm2.65122-.9451-1.24333-2.0722.8617-.517c.47393-.2844.86974-.5169.87957-.5167.017.0004 3.1099496 5.1369 3.1099496 5.1648 0 .01-.53203.013-1.18228.013h-1.1822696l-1.24334-2.0722z"/></svg>