<?xml version="1.0" encoding="utf-8"?>
<!-- Generator: Adobe Illustrator 22.1.0, SVG Export Plug-In . SVG Version: 6.00 Build 0)  -->
<svg version="1.1" id="Ebene_1" xmlns="http://www.w3.org/2000/svg" xmlns:xlink="http://www.w3.org/1999/xlink" x="0px" y="0px"
	 viewBox="0 0 443.8 197.4" style="enable-background:new 0 0 443.8 197.4;" xml:space="preserve">
<style type="text/css">
	.st0{fill:#D51920;}
</style>
<path d="M31.6,162.8h-6.3l-1.2-13.5h6.3L31.6,162.8z M412.2,162.8h6.3l1.2-13.5h-6.3L412.2,162.8z M20.5,149.4h-6.3l1.2,13.5h6.3
	L20.5,149.4z M422.2,162.8h6.3l1.2-13.5h-6.3L422.2,162.8z M63.5,166.1c0.2,4.7-3.5,8.6-8.2,8.8c-0.1,0-0.3,0-0.4,0
	c-4.8,0-8.6-3.9-8.6-8.7c0-0.1,0-0.2,0-0.2v-0.1c0-4.8,3.4-8.8,8.5-8.8c4.8,0,8.6,3.9,8.6,8.7C63.5,165.9,63.5,165.9,63.5,166.1
	L63.5,166.1 M36.8,166.1c0,9.5,7.7,17.1,18,17.1s18.2-7.7,18.2-17.2v-0.1c0-9.5-7.7-17.1-18-17.1S36.8,156.5,36.8,166.1L36.8,166.1
	 M78.8,182.5h9.3v-11.8H104v-7.6H88.1v-5.6h17.6v-8H78.8L78.8,182.5L78.8,182.5z M111.1,182.5h9.3v-11.8h15.9v-7.6h-15.9v-5.6h17.6
	v-8h-26.9L111.1,182.5L111.1,182.5z M164.2,182.5h9.3v-25h10.1v-8h-29.5v8h10.1L164.2,182.5L164.2,182.5z M189.7,182.5h9.3V170h12
	v12.5h9.3v-33H211v12.4h-12v-12.4h-9.3V182.5L189.7,182.5z M226.6,182.5h27.3v-7.8h-18.1v-5.2h16.1v-7.2h-16.1v-5h17.8v-7.8h-27
	L226.6,182.5L226.6,182.5z M279.4,182.8h8.1l6.7-19l6.8,19h8.1l11.2-33.3h-9.6l-5.9,19.1l-6.5-19.2h-8l-6.5,19.2l-5.9-19.1h-9.8
	L279.4,182.8z M331.3,169.5l3.8-9.4l3.7,9.4H331.3L331.3,169.5z M316.3,182.5h9.8l2.4-5.9h13l2.5,5.9h10l-14.3-33.3h-9L316.3,182.5z
	 M358.3,182.5h25.6v-8h-16.3v-25h-9.3L358.3,182.5L358.3,182.5z M389.1,182.5h25.6v-8h-16.3v-25h-9.3L389.1,182.5L389.1,182.5z"/>
<path class="st0" d="M374.4,66.4h-18.1c-1.8-4.4-3.7-7.9-13.8-7.9c-7,0-10,2.9-10,5.8c0,3.2,2.5,5.8,10.2,7.5l16.4,4.4
	c10.7,2.9,15.9,11.4,15.9,20.3c0,5-1.1,11-5.8,16c-3.5,3.7-8.9,8.6-26.7,8.6c-24.4,0-32.5-15.4-32.5-24.8h19
	c1.9,6.8,6.5,9.4,15.8,9.4c6.4,0,11.9-2.3,11.9-7.2c0-4.7-4-6.4-9.1-7.8l-12.9-3.5c-6.2-1.9-11.4-3.4-15.1-6.5
	c-9.6-8.2-8.9-22.9,1.5-30.5c5.8-4.2,11.7-6.4,21.2-6.4c11.1,0,17.4,3.2,22.4,6.6C369,53.2,374.3,60.6,374.4,66.4 M69.3,14.2
	c0.2,0.6,37.8,106,37.8,106h22.5l34.6-87.7h215l1.6-18.3H147.7L119,86.9L93.2,14.2L69.3,14.2 M255.2,82.3l28.1,37.9h17.6V45.2h-20.2
	V86l-25.4-40.7h-19.4v74.9h19.4V82.3L255.2,82.3z M381.5,116.3c0-2.2-1.8-4-4-4s-4,1.8-4,4s1.8,4,4,4
	C379.7,120.3,381.6,118.5,381.5,116.3C381.6,116.3,381.6,116.3,381.5,116.3L381.5,116.3z M381.1,116.3c0,1.9-1.6,3.5-3.5,3.5
	c-1.9,0-3.5-1.6-3.5-3.5s1.6-3.5,3.5-3.5C379.5,112.7,381.1,114.2,381.1,116.3C381.1,116.2,381.1,116.2,381.1,116.3L381.1,116.3z
	 M379.4,115.4c0-0.8-0.7-1.4-1.4-1.4c-0.1,0-0.1,0-0.2,0h-1.9v4.2h0.9v-1.4h0.7l0.9,1.4h1.1l-1-1.5
	C379.1,116.6,379.5,116,379.4,115.4L379.4,115.4z M378.5,115.5c0,0.3-0.3,0.6-0.6,0.6c0,0-0.1,0-0.1,0h-0.9v-1.2h0.9
	c0.3-0.1,0.7,0.1,0.8,0.4C378.5,115.4,378.6,115.4,378.5,115.5L378.5,115.5z M148.2,120.2h21.6l4-11.7h28.5l4.1,11.7h21.2
	l-27.2-74.9h-22.9L148.2,120.2z M179.8,94.9l8.4-24.9l8.2,24.9H179.8L179.8,94.9z"/>
</svg>
